<svg xmlns="http://www.w3.org/2000/svg">
  <symbol
    id="icon-all-notes"
    viewBox="0 0 24 24"
    fill="none"
    stroke-width="1.5"
    stroke="currentColor"
  >
    <path
      stroke-linecap="round"
      stroke-linejoin="round"
      d="M19.5 14.25v-2.625a3.375 3.375 0 0 0-3.375-3.375h-1.5A1.125 1.125 0 0 1 13.5 7.125v-1.5a3.375 3.375 0 0 0-3.375-3.375H8.25m0 12.75h7.5m-7.5 3H12M10.5 2.25H5.625c-.621 0-1.125.504-1.125 1.125v17.25c0 .621.504 1.125 1.125 1.125h12.75c.621 0 1.125-.504 1.125-1.125V11.25a9 9 0 0 0-9-9Z"
    />
  </symbol>

  <symbol
    id="icon-archive-notes"
    viewBox="0 0 24 24"
    fill="none"
    stroke-width="1.5"
    stroke="currentColor"
  >
    <path
      stroke-linecap="round"
      stroke-linejoin="round"
      d="m20.25 7.5-.625 10.632a2.25 2.25 0 0 1-2.247 2.118H6.622a2.25 2.25 0 0 1-2.247-2.118L3.75 7.5m8.25 3v6.75m0 0-3-3m3 3 3-3M3.375 7.5h17.25c.621 0 1.125-.504 1.125-1.125v-1.5c0-.621-.504-1.125-1.125-1.125H3.375c-.621 0-1.125.504-1.125 1.125v1.5c0 .621.504 1.125 1.125 1.125Z"
    />
  </symbol>

  <symbol
    id="icon-unarchive-notes"
    viewBox="0 0 24 24"
    fill="none"
    stroke-width="1.5"
    stroke="currentColor"
  >
    <path
      stroke-linecap="round"
      stroke-linejoin="round"
      d="m20.25 7.5-.625 10.632a2.25 2.25 0 0 1-2.247 2.118H6.622a2.25 2.25 0 0 1-2.247-2.118L3.75 7.5m6 4.125 2.25 2.25m0 0 2.25 2.25M12 13.875l2.25-2.25M12 13.875l-2.25 2.25M3.375 7.5h17.25c.621 0 1.125-.504 1.125-1.125v-1.5c0-.621-.504-1.125-1.125-1.125H3.375c-.621 0-1.125.504-1.125 1.125v1.5c0 .621.504 1.125 1.125 1.125Z"
    />
  </symbol>

  <symbol
    id="icon-chevron-right"
    viewBox="0 0 24 24"
    fill="none"
    stroke-width="1.5"
    stroke="currentColor"
  >
    <path
      stroke-linecap="round"
      stroke-linejoin="round"
      d="m8.25 4.5 7.5 7.5-7.5 7.5"
    />
  </symbol>

  <symbol
    id="icon-clock"
    viewBox="0 0 24 24"
    fill="none"
    stroke-width="1.5"
    stroke="currentColor"
  >
    <path
      stroke-linecap="round"
      stroke-linejoin="round"
      d="M12 6v6h4.5m4.5 0a9 9 0 1 1-18 0 9 9 0 0 1 18 0Z"
    />
  </symbol>

  <symbol
    id="icon-plus"
    viewBox="0 0 24 24"
    fill="none"
    stroke-width="1.5"
    stroke="currentColor"
  >
    <path
      stroke-linecap="round"
      stroke-linejoin="round"
      d="M12 4.5v15m7.5-7.5h-15"
    />
  </symbol>

  <symbol
    id="icon-search"
    viewBox="0 0 24 24"
    fill="none"
    stroke-width="1.5"
    stroke="currentColor"
  >
    <path
      stroke-linecap="round"
      stroke-linejoin="round"
      d="m21 21-5.197-5.197m0 0A7.5 7.5 0 1 0 5.196 5.196a7.5 7.5 0 0 0 10.607 10.607Z"
    />
  </symbol>

  <symbol
    id="icon-tag"
    viewBox="0 0 24 24"
    fill="none"
    stroke-width="1.5"
    stroke="currentColor"
  >
    <path
      stroke-linecap="round"
      stroke-linejoin="round"
      d="M9.568 3H5.25A2.25 2.25 0 0 0 3 5.25v4.318c0 .597.237 1.17.659 1.591l9.581 9.581c.699.699 1.78.872 2.607.33a18.095 18.095 0 0 0 5.223-5.223c.542-.827.369-1.908-.33-2.607L11.16 3.66A2.25 2.25 0 0 0 9.568 3Z"
    />
    <path
      stroke-linecap="round"
      stroke-linejoin="round"
      d="M6 6h.008v.008H6V6Z"
    />
  </symbol>

  <symbol
    id="icon-trash"
    viewBox="0 0 24 24"
    fill="none"
    stroke-width="1.5"
    stroke="currentColor"
  >
    <path
      stroke-linecap="round"
      stroke-linejoin="round"
      d="m14.74 9-.346 9m-4.788 0L9.26 9m9.968-3.21c.342.052.682.107 1.022.166m-1.022-.165L18.16 19.673a2.25 2.25 0 0 1-2.244 2.077H8.084a2.25 2.25 0 0 1-2.244-2.077L4.772 5.79m14.456 0a48.108 48.108 0 0 0-3.478-.397m-12 .562c.34-.059.68-.114 1.022-.165m0 0a48.11 48.11 0 0 1 3.478-.397m7.5 0v-.916c0-1.18-.91-2.164-2.09-2.201a51.964 51.964 0 0 0-3.32 0c-1.18.037-2.09 1.022-2.09 2.201v.916m7.5 0a48.667 48.667 0 0 0-7.5 0"
    />
  </symbol>
</svg>
